<svg xmlns="http://www.w3.org/2000/svg" width="60.097" height="74.677" viewBox="0 0 60.097 74.677"><defs><style>.a{fill:#d13834;}.b{fill:#f75b57;}.c{fill:#4c312c;}.d{fill:#994530;}.e{fill:#659c35;}</style></defs><path class="a" d="M39.726,16.567a17.077,17.077,0,0,1-8.291,0C17.263,13.022,5.4,14.381,5.533,41.413c.07,13.847,12.891,31.8,26.365,28.73a16.629,16.629,0,0,1,7.364,0c13.474,3.072,26.3-14.883,26.365-28.73C65.765,14.383,53.9,13.022,39.726,16.567Z" transform="translate(-5.532 4.187)"/><path class="b" d="M10.809,32.714a1.276,1.276,0,0,1-1.276-1.276c0-7.038,5.153-12.764,11.487-12.764a1.276,1.276,0,0,1,0,2.553c-4.925,0-8.934,4.581-8.934,10.211A1.277,1.277,0,0,1,10.809,32.714Z" transform="translate(-4.426 6.118)"/><path class="c" d="M30.324,24.038A1.276,1.276,0,0,1,29.05,22.8C28.878,17.4,26.8,10.62,21.491,7.787a1.277,1.277,0,1,1,1.2-2.253C28.966,8.879,31.407,16.6,31.6,22.721a1.275,1.275,0,0,1-1.236,1.316Z" transform="translate(-0.534 1.488)"/><path class="d" d="M29.487,24.574a7.978,7.978,0,0,1-5.68-2.355,1.276,1.276,0,0,1,1.8-1.8,5.474,5.474,0,0,0,7.749,0,1.276,1.276,0,0,1,1.8,1.8A7.975,7.975,0,0,1,29.487,24.574Z" transform="translate(0.348 6.421)"/><path class="e" d="M27.305,16.644l.777-5.215A12.656,12.656,0,0,1,38.735.776L43.949,0l-.777,5.215A12.656,12.656,0,0,1,32.519,15.868Z" transform="translate(1.744)"/></svg>