<svg xmlns="http://www.w3.org/2000/svg" xmlns:xlink="http://www.w3.org/1999/xlink" width="1292.953" height="822.43" viewBox="0 0 1292.953 822.43"><defs><style>.a{fill:none;}.b{fill:#a5a5a5;}.c{clip-path:url(#a);}.d{fill:#4183d5;}.e{fill:#ff8394;}</style><clipPath id="a"><rect class="a" width="1292.953" height="145.602"/></clipPath></defs><g transform="translate(6 22.43)"><rect class="b" width="25" height="691" transform="translate(0 109)"/><rect class="b" width="25" height="691" transform="translate(1255 109)"/><g transform="translate(-6 -22.43)"><g class="c"><g transform="translate(-116)"><path class="d" d="M0,0H62V800H0Z" transform="translate(116)"/><path class="e" d="M0,0H62V800H0Z" transform="translate(198)"/></g><g transform="translate(48)"><path class="d" d="M0,0H62V800H0Z" transform="translate(116)"/><path class="e" d="M0,0H62V800H0Z" transform="translate(198)"/></g><g transform="translate(212)"><path class="d" d="M0,0H62V800H0Z" transform="translate(116)"/><path class="e" d="M0,0H62V800H0Z" transform="translate(198)"/></g><g transform="translate(376)"><path class="d" d="M0,0H62V800H0Z" transform="translate(116)"/><path class="e" d="M0,0H62V800H0Z" transform="translate(198)"/></g><g transform="translate(540)"><path class="d" d="M0,0H62V800H0Z" transform="translate(116)"/><path class="e" d="M0,0H62V800H0Z" transform="translate(198)"/></g><g transform="translate(704)"><path class="d" d="M0,0H62V800H0Z" transform="translate(116)"/><path class="e" d="M0,0H62V800H0Z" transform="translate(198)"/></g><g transform="translate(868)"><path class="d" d="M0,0H62V800H0Z" transform="translate(116)"/><path class="e" d="M0,0H62V800H0Z" transform="translate(198)"/></g><g transform="translate(1032)"><path class="d" d="M0,0H62V800H0Z" transform="translate(116)"/><path class="e" d="M0,0H62V800H0Z" transform="translate(198)"/></g></g></g></g></svg>