<svg xmlns="http://www.w3.org/2000/svg" xmlns:xlink="http://www.w3.org/1999/xlink" width="1008" height="488.5" viewBox="0 0 1008 488.5"><defs><style>.a{fill:#f7f7f7;}.b{fill:#f1735e;}.as,.c{fill:#fff;}.c{font-size:28px;font-family:NotoSansCJKtc-Bold, Noto Sans CJK TC;font-weight:700;}.aa,.c,.d{letter-spacing:0.1em;}.d{font-size:20px;font-family:NotoSansCJKtc-Medium, Noto Sans CJK TC;font-weight:500;}.e{fill:#5ed134;}.f{fill:#ed8f20;}.g{fill:#ef771d;}.h{fill:#9b6026;}.i{fill:#659c35;}.j{fill:#d13834;}.k{fill:#f75b57;}.l{fill:#4c312c;}.m{fill:#994530;}.n{fill:#eae2ce;}.o{fill:#ff5892;}.p{fill:none;stroke:#c93e70;stroke-width:4px;}.ad,.ae,.af,.ag,.ah,.al,.p,.r{stroke-linecap:round;}.q{fill:#c6b09c;}.r{fill:#e76051;stroke:#e76051;}.ad,.ae,.af,.ag,.ah,.al,.r{stroke-linejoin:round;}.s{fill:#009367;}.t{fill:#25a4cd;}.u{fill:#a9bd32;}.v{fill:#f7cd46;}.w{fill:#dc9628;}.x{fill:#f4c44e;}.y{fill:#f1b501;}.z{fill:#d2d5d7;}.aa,.ab{fill:#707070;}.aa{font-size:18px;font-family:NotoSansCJKtc-Regular, Noto Sans CJK TC;}.ac{fill:#238b3a;}.ad,.ae,.af,.ag,.ah,.al{fill:#008330;stroke:#008330;}.ad{stroke-width:0.448px;}.ae{stroke-width:0.565px;}.af{stroke-width:0.962px;}.ag{stroke-width:0.388px;}.ah{stroke-width:0.813px;}.ai{fill:#750065;}.aj{fill:#aa3b94;}.ak{fill:#e1e6c5;}.al{stroke-width:0.954px;}.am{fill:#fff872;}.an{fill:#ffc922;}.ao{fill:#9c5723;}.ap{fill:#ae6472;}.aq{fill:#8c5564;}.ar{fill:#ebd26d;}.at{fill:#88c057;}.au{fill:#f79000;}.av{fill:#fbcd56;}.aw{fill:#c41112;}.ax{filter:url(#a);}</style><filter id="a" x="0" y="0" width="1008" height="488.5" filterUnits="userSpaceOnUse"><feOffset dx="3" dy="3" input="SourceAlpha"/><feGaussianBlur stdDeviation="5" result="b"/><feFlood flood-opacity="0.161"/><feComposite operator="in" in2="b"/><feComposite in="SourceGraphic"/></filter></defs><g transform="translate(-127 -189)"><g class="ax" transform="matrix(1, 0, 0, 1, 127, 189)"><path class="a" d="M39.416,0H938.584C960.353,0,978,15.594,978,34.83V423.67c0,19.236-17.647,34.83-39.416,34.83H39.416C17.647,458.5,0,442.906,0,423.67V34.83C0,15.594,17.647,0,39.416,0Z" transform="translate(12 12)"/></g><path class="b" d="M0,0H238L216.63,44.37,238,86H0Z" transform="translate(139 232)"/><text class="c" transform="translate(248 287)"><tspan x="-60.2" y="0">規則說明</tspan></text><text class="d" transform="translate(383 284)"><tspan x="0" y="0" xml:space="preserve">  好兄弟餓很久了......請幫助它吃到適合的食物，並避開普渡禁忌物品！</tspan></text><rect class="e" width="110" height="6" rx="3" transform="translate(730 290)"/><path class="b" d="M-1309.915,28.772l-8.592-8.592-8.592,8.592a3.315,3.315,0,0,1-4.687,0,3.315,3.315,0,0,1,0-4.687l8.592-8.592-8.592-8.592a3.315,3.315,0,0,1,0-4.687,3.315,3.315,0,0,1,4.687,0l8.592,8.592,8.592-8.592a3.315,3.315,0,0,1,4.687,0,3.314,3.314,0,0,1,0,4.687l-8.592,8.592,8.592,8.592a3.314,3.314,0,0,1,0,4.687,3.3,3.3,0,0,1-2.344.971A3.3,3.3,0,0,1-1309.915,28.772Z" transform="translate(1999.65 358.386)"/><g transform="translate(347.403 420.243)"><path class="f" d="M43.7,14.793l-6.117-.5,2.265-5.705A14.734,14.734,0,0,1,41.22,5.967a28.894,28.894,0,1,0,10.086,7.405A14.7,14.7,0,0,1,43.7,14.793Z" transform="translate(-0.765 0.704)"/><circle class="g" cx="2.399" cy="2.399" r="2.399" transform="translate(43.004 19.831)"/><circle class="g" cx="2.399" cy="2.399" r="2.399" transform="translate(49.413 33.241)"/><circle class="g" cx="2.399" cy="2.399" r="2.399" transform="translate(49.029 25.842)"/><circle class="g" cx="2.399" cy="2.399" r="2.399" transform="translate(41.749 30.69)"/><circle class="g" cx="2.399" cy="2.399" r="2.399" transform="translate(43.004 39.066)"/><circle class="g" cx="2.399" cy="2.399" r="2.399" transform="translate(21.365 10.214)"/><circle class="g" cx="2.399" cy="2.399" r="2.399" transform="translate(12.95 13.821)"/><g transform="translate(31.262 12.66)"><path class="f" d="M27.765,11.529s5.1.84,6.477,4.318" transform="translate(-26.566 -10.33)"/><path class="h" d="M34.441,17.246a1.2,1.2,0,0,1-1.115-.758c-1.109-2.8-5.516-3.569-5.559-3.576a1.2,1.2,0,0,1,.391-2.366c.236.038,5.786,1,7.4,5.059a1.2,1.2,0,0,1-.673,1.557A1.188,1.188,0,0,1,34.441,17.246Z" transform="translate(-26.765 -10.529)"/></g><g transform="translate(31.98 13.179)"><path class="f" d="M28.365,15.041a11.748,11.748,0,0,1,4.542-3.079" transform="translate(-27.165 -10.762)"/><path class="h" d="M28.563,16.44a1.2,1.2,0,0,1-.886-2.007,12.967,12.967,0,0,1,5.009-3.4,1.2,1.2,0,1,1,.843,2.245,10.549,10.549,0,0,0-4.078,2.763A1.194,1.194,0,0,1,28.563,16.44Z" transform="translate(-27.364 -10.962)"/></g><path class="i" d="M54.626.552l-6.1-.5A14.7,14.7,0,0,0,33.657,9.276L31.4,14.968l6.1.5A14.7,14.7,0,0,0,52.367,6.244Z" transform="translate(5.471 0.001)"/></g><g transform="translate(168.5 407.509)"><path class="j" d="M39.726,16.567a17.077,17.077,0,0,1-8.291,0C17.263,13.022,5.4,14.381,5.533,41.413c.07,13.847,12.891,31.8,26.365,28.73a16.629,16.629,0,0,1,7.364,0c13.474,3.072,26.3-14.883,26.365-28.73C65.765,14.383,53.9,13.022,39.726,16.567Z" transform="translate(-5.532 4.187)"/><path class="k" d="M10.809,32.714a1.276,1.276,0,0,1-1.276-1.276c0-7.038,5.153-12.764,11.487-12.764a1.276,1.276,0,0,1,0,2.553c-4.925,0-8.934,4.581-8.934,10.211A1.277,1.277,0,0,1,10.809,32.714Z" transform="translate(-4.426 6.118)"/><path class="l" d="M30.324,24.038A1.276,1.276,0,0,1,29.05,22.8C28.878,17.4,26.8,10.62,21.491,7.787a1.277,1.277,0,1,1,1.2-2.253C28.966,8.879,31.407,16.6,31.6,22.721a1.275,1.275,0,0,1-1.236,1.316Z" transform="translate(-0.534 1.488)"/><path class="m" d="M29.487,24.574a7.978,7.978,0,0,1-5.68-2.355,1.276,1.276,0,0,1,1.8-1.8,5.474,5.474,0,0,0,7.749,0,1.276,1.276,0,0,1,1.8,1.8A7.975,7.975,0,0,1,29.487,24.574Z" transform="translate(0.348 6.421)"/><path class="i" d="M27.305,16.644l.777-5.215A12.656,12.656,0,0,1,38.735.776L43.949,0l-.777,5.215A12.656,12.656,0,0,1,32.519,15.868Z" transform="translate(1.744)"/></g><g transform="translate(-195.58 68.153)"><g transform="translate(580.399 489.468)"><g transform="translate(0 0)"><path class="n" d="M21.449,49.586s-.117-5.6,5.482-5.6c0,0,0-5.6,5.6-5.6,0,0,0-5.6,5.6-5.6,0,0,0-5.6,5.6-5.6,0,0,0-5.6,5.6-5.6s5.6,5.6,5.6,5.6,5.6,0,5.6,5.6c0,0,5.6,0,5.6,5.6,0,0,5.6,0,5.6,5.6,0,0,5.482,0,5.482,5.6l.117,2.8H21.332Zm0,0" transform="translate(-18.533 -21.594)"/><path class="o" d="M30.792,234.926H0c0,22.394,16.8,25.193,16.8,25.193a6.02,6.02,0,0,0,5.6,5.6h16.8a6.02,6.02,0,0,0,5.6-5.6s16.8-2.8,16.8-25.193Zm0,0" transform="translate(0 -208.091)"/><path class="p" d="M8.819,64.164s2.363,10.823,10.641,12.93" transform="translate(-2.556 -31.125)"/></g></g><g transform="translate(553.983 459.294) rotate(-10)"><path class="q" d="M.751,0H.757c.415,0,.751.191.751.428V51.509c0,.236-.336.428-.751.428H.751c-.415,0-.751-.191-.751-.428V.428C0,.191.336,0,.751,0Z" transform="translate(48.348 0)"/><path class="r" d="M48.348,0,0,37.858H48.348V0" transform="translate(0 1.281)"/><path class="s" d="M35.465,0,0,27.45H35.465V0" transform="translate(10.241 8.291)"/><path class="t" d="M29.624,0,0,21.906H29.624V0" transform="translate(14.61 12.017)"/><g transform="translate(19.079 24.327)"><path class="u" d="M.27,7.706A4.709,4.709,0,0,0,5.583,9.249,5.184,5.184,0,0,0,7.964,7.327c.906-1.267,1.853-3.616,3.87-2.566,1.65.859,2.522,3.23,4.768,1.9a3.793,3.793,0,0,0,1.467-1.843c.377-.907.466-1.738,1.342-2.315,1.1-.724,2.47-.427,3.683-.216,1.308.228,1.87-1.775.552-2-1.965-.342-4.072-.608-5.758.684a4.63,4.63,0,0,0-1.561,2.452c-.767,2.208-2.057.458-3.214-.291a4.138,4.138,0,0,0-4.529.014,6.489,6.489,0,0,0-1.774,2.1c-1.233,1.947-3.173,3.171-5.071,1C.858,5.228-.607,6.7.27,7.706Z" transform="translate(0 0)"/></g><g transform="translate(25.332 26.665)"><ellipse class="r" cx="2.28" cy="2.28" rx="2.28" ry="2.28"/><ellipse class="v" cx="1.764" cy="1.764" rx="1.764" ry="1.764" transform="translate(0.516 0.516)"/></g><g transform="translate(30.58 22.621)"><g transform="translate(0 0)"><ellipse class="r" cx="2.28" cy="2.28" rx="2.28" ry="2.28"/></g><ellipse class="v" cx="1.764" cy="1.764" rx="1.764" ry="1.764" transform="translate(0.516 0.516)"/></g><g transform="translate(35.827 18.577)"><ellipse class="r" cx="2.28" cy="2.28" rx="2.28" ry="2.28"/><ellipse class="v" cx="1.764" cy="1.764" rx="1.764" ry="1.764" transform="translate(0.516 0.516)"/></g></g></g><g transform="translate(-110.195 213.533)"><g transform="translate(279.195 324.746)"><path class="w" d="M59.215,14.475a5.887,5.887,0,0,0-3.933,2.147,27.648,27.648,0,0,1-15.869,9.513,15.384,15.384,0,0,0-8.825,5.472,16.163,16.163,0,0,0,1.594,21.711,15.329,15.329,0,0,0,22.41-1.652,15.9,15.9,0,0,0,3.492-8.755,32.589,32.589,0,0,1,7.332-17.777S69.848,16.321,59.215,14.475Z" transform="translate(20.079 2.371)"/><path class="x" d="M82.784,27.079c.518-.731,1.056-1.45,1.63-2.141,0,0,4.458-8.65-6.237-10.464a5.964,5.964,0,0,0-3.956,2.107,25.835,25.835,0,0,1-2.837,2.889c-7.616-2.449-16.918-1-27.037,7.622-1.12.955-3.018,2.972-5.657,3.959-1.009,4.861-4.261,10.759-11.141,17.863-7.972,8.231-13.852,3.847-14.492-1.9-.612-5.5,4.206-11.044,7.246-15.676a47.78,47.78,0,0,0,3.96-7.226,6.793,6.793,0,0,0-3.71-1.131C9.125,22.98,4,30.809,4,40.466A14.712,14.712,0,0,0,4.3,43.4a20.38,20.38,0,0,1,.147,8.242A20.742,20.742,0,0,0,4,55.894a12.58,12.58,0,0,0,2.8,8.123,10.872,10.872,0,0,1,16.5,5.218h1.264a10.875,10.875,0,0,1,20.474,0H46.3a10.875,10.875,0,0,1,20.474,0h1.264A10.844,10.844,0,0,1,86.381,65.7c5.175-3.508,8.78-8.117,10-13.92C97.953,44.357,89.238,34.231,82.784,27.079Z" transform="translate(1.011 3.168)"/><path class="y" d="M17,32.861c3.032-4.447,6.639-10.913,6.324-16.142a2.771,2.771,0,0,1,4.187-2.461c8.265,4.7,19.007,15.792-2.544,37.209C16.2,60.179,9.732,55.539,9.029,49.454,8.356,43.636,13.654,37.764,17,32.861Z" transform="translate(4.319 1.248)"/><path class="z" d="M65.146,10.167a4.222,4.222,0,0,0-2.381-1.48,1.742,1.742,0,0,1-1.228-1.012,4.227,4.227,0,0,0-1.909-2.055,4.37,4.37,0,0,0-5.039.71,4.294,4.294,0,0,0-1.27,3.717,5.224,5.224,0,0,1-1.023,4.13l-6.657,8.076c3.86.974,5.335,2.975,5.734,4.962L58.145,19A5.232,5.232,0,0,1,62,17.205a4.292,4.292,0,0,0,3.408-1.956A4.375,4.375,0,0,0,65.146,10.167Z" transform="translate(34.899 -5.122)"/><path class="w" d="M59.215,14.475a5.887,5.887,0,0,0-3.933,2.147,27.648,27.648,0,0,1-15.869,9.513,15.384,15.384,0,0,0-8.825,5.472,16.163,16.163,0,0,0,1.594,21.711,15.329,15.329,0,0,0,22.41-1.652,15.9,15.9,0,0,0,3.492-8.755,32.589,32.589,0,0,1,7.332-17.777S69.848,16.321,59.215,14.475Z" transform="translate(20.079 2.371)"/><path class="j" d="M86.854,57.487H12.737a10.253,10.253,0,0,1-8.328-4.263l-4.092-5.7a1.673,1.673,0,0,1,1.369-2.646H97.907a1.673,1.673,0,0,1,1.369,2.646l-4.092,5.7A10.254,10.254,0,0,1,86.854,57.487Z" transform="translate(0 19.482)"/></g><g transform="translate(355.598 352.015) rotate(171)"><path class="q" d="M.948,65.573H.956c.524,0,.948-.242.948-.54V.54C1.9.242,1.479,0,.956,0H.948C.424,0,0,.242,0,.54V65.033C0,65.332.424,65.573.948,65.573Z" transform="translate(61.043 0)"/><path class="r" d="M61.043,47.8,0,0H61.043V47.8" transform="translate(0 16.158)"/><path class="s" d="M44.777,34.657,0,0H44.777V34.657" transform="translate(12.93 20.449)"/><path class="t" d="M37.4,27.658,0,0H37.4V27.658" transform="translate(18.446 22.743)"/><g transform="translate(24.088 22.803)"><path class="u" d="M.341,2.327A5.945,5.945,0,0,1,7.049.378a6.545,6.545,0,0,1,3.006,2.427c1.144,1.6,2.34,4.565,4.886,3.24,2.083-1.085,3.184-4.078,6.02-2.4a4.788,4.788,0,0,1,1.852,2.326c.475,1.145.589,2.194,1.695,2.922,1.39.915,3.119.54,4.649.273,1.651-.287,2.361,2.241.7,2.53-2.48.432-5.141.768-7.269-.863a5.846,5.846,0,0,1-1.971-3.1c-.969-2.787-2.6-.578-4.057.367a5.224,5.224,0,0,1-5.718-.018A8.192,8.192,0,0,1,8.6,5.446c-1.557-2.458-4.006-4-6.4-1.264C1.083,5.456-.767,3.593.341,2.327Z" transform="translate(0 0)"/></g><g transform="translate(31.983 26.15)"><g transform="translate(0)"><ellipse class="r" cx="2.879" cy="2.879" rx="2.879" ry="2.879"/></g><ellipse class="v" cx="2.227" cy="2.227" rx="2.227" ry="2.227" transform="translate(0.651 0.651)"/></g><g transform="translate(38.609 31.256)"><ellipse class="r" cx="2.879" cy="2.879" rx="2.879" ry="2.879"/><ellipse class="v" cx="2.227" cy="2.227" rx="2.227" ry="2.227" transform="translate(0.651 0.651)"/></g><g transform="translate(45.234 36.362)"><g transform="translate(0)"><ellipse class="r" cx="2.879" cy="2.879" rx="2.879" ry="2.879"/></g><ellipse class="v" cx="2.227" cy="2.227" rx="2.227" ry="2.227" transform="translate(0.651 0.651)"/></g></g></g><text class="d" transform="translate(243 448)"><tspan x="0" y="0">蘋果</tspan></text><text class="d" transform="translate(289 581)"><tspan x="0" y="0">全雞</tspan></text><text class="d" transform="translate(465 581)"><tspan x="0" y="0">飯</tspan></text><text class="aa" transform="translate(243 475)"><tspan x="0" y="0">平平安安</tspan></text><text class="aa" transform="translate(289 608)"><tspan x="0" y="0">就好吃</tspan></text><text class="aa" transform="translate(465 608)"><tspan x="0" y="0">吃飽飽</tspan></text><text class="aa" transform="translate(662 608)"><tspan x="0" y="0">會避煞，讓好兄弟吃不到</tspan></text><text class="aa" transform="translate(936 552)"><tspan x="0" y="0">防護罩功能，讓</tspan><tspan x="0" y="27">好兄弟暫時無敵</tspan></text><text class="aa" transform="translate(422 474)"><tspan x="0" y="0">大吉大利</tspan></text><text class="aa" transform="translate(704 454)"><tspan x="0" y="0">台語諧音「招你來」</tspan><tspan x="0" y="25">會招來太多好兄弟</tspan><tspan y="25">ㄛ</tspan></text><text class="d" transform="translate(255 380)"><tspan x="-86" y="0">可以拜的</tspan></text><text class="d" transform="translate(565 380)"><tspan x="0" y="0">不能拜的</tspan></text><text class="d" transform="translate(923 380)"><tspan x="0" y="0">特殊道具</tspan></text><text class="d" transform="translate(422 445)"><tspan x="0" y="0">橘子</tspan></text><rect class="ab" width="200" height="3" rx="1.5" transform="translate(546 411) rotate(90)"/><rect class="ab" width="200" height="3" rx="1.5" transform="translate(903 411) rotate(90)"/><g transform="matrix(0.848, 0.53, -0.53, 0.848, 634.078, 495.037)"><rect class="ac" width="4.112" height="128.914" rx="2.056" transform="translate(20.507 17.434)"/><path class="ad" d="M22.832,31.731A30.784,30.784,0,0,1,25.468,43.41,30.8,30.8,0,0,1,18.4,33.759,30.876,30.876,0,0,1,15.76,22.08a30.861,30.861,0,0,1,7.072,9.651Z" transform="translate(-4.12 -5.529)"/><path class="ad" d="M24.845,55.568a30.784,30.784,0,0,1,2.635,11.679,30.882,30.882,0,0,1-7.065-9.658A30.763,30.763,0,0,1,17.78,45.91,30.883,30.883,0,0,1,24.845,55.568Z" transform="translate(-4.713 -12.522)"/><path class="ae" d="M31.1,26.067a38.859,38.859,0,0,0,.636,15.084,38.859,38.859,0,0,0,5.44-14.081A38.859,38.859,0,0,0,36.548,12,38.8,38.8,0,0,0,31.1,26.067Z" transform="translate(-8.488 -2.571)"/><path class="af" d="M33.984,70.776a82.021,82.021,0,0,0-1.632,27.64A82.184,82.184,0,0,0,43.4,73.03a82.233,82.233,0,0,0,1.632-27.64,82.085,82.085,0,0,0-11.05,25.386Z" transform="translate(-8.842 -12.37)"/><path class="ag" d="M34.1,53.511A25.958,25.958,0,0,0,32.16,63.572a25.923,25.923,0,0,0,5.878-8.394A25.845,25.845,0,0,0,39.981,45.11a25.909,25.909,0,0,0-5.878,8.4Z" transform="translate(-8.933 -12.287)"/><path class="ae" d="M22.014,18.289a38.951,38.951,0,0,0,7.065,13.339,38.8,38.8,0,0,0-1.13-15.049A38.987,38.987,0,0,0,20.883,3.24a38.859,38.859,0,0,0,1.13,15.049Z" transform="translate(-5.541)"/><path class="ah" d="M32.676,124.849a44.384,44.384,0,0,0-1.844,19.917,44.363,44.363,0,0,0,10.994-16.738,44.335,44.335,0,0,0,1.865-19.938,44.42,44.42,0,0,0-11.015,16.759Z" transform="translate(-8.425 -30.77)"/><path class="ai" d="M22.418,26.478C20.829,22.769,23.655,18,23.655,18s5.4,1.243,6.988,4.946-1.236,8.478-1.236,8.478S24.008,30.152,22.418,26.478Z" transform="translate(-5.932 -4.332)"/><path class="aj" d="M33,21.908c1.349,3.8-1.788,8.372-1.788,8.372s-5.306-1.59-6.648-5.391,1.788-8.379,1.788-8.379S31.655,18.107,33,21.908Z" transform="translate(-6.605 -3.894)"/><path class="ai" d="M19.242,32.1c3.851-1.187,8.295,2.12,8.295,2.12s-1.8,5.242-5.652,6.429-8.295-2.12-8.295-2.12S15.392,33.29,19.242,32.1Z" transform="translate(-3.483 -8.395)"/><path class="ai" d="M28.98,43.648c-1.583-3.7,1.243-8.478,1.243-8.478s5.4,1.243,6.988,4.946-1.243,8.478-1.243,8.478S30.57,47.358,28.98,43.648Z" transform="translate(-7.859 -9.37)"/><path class="aj" d="M20.656,29.7c4-.516,7.814,3.533,7.814,3.533s-2.678,4.833-6.7,5.341S14,35.043,14,35.043,16.657,30.21,20.656,29.7Z" transform="translate(-3.604 -7.752)"/><path class="ai" d="M37.232,29.892c3.858-1.194,8.295,2.12,8.295,2.12s-1.8,5.242-5.652,6.429-8.295-2.12-8.295-2.12S33.382,31.044,37.232,29.892Z" transform="translate(-8.763 -7.745)"/><path class="aj" d="M37.335,37.241c1.342,3.8-1.788,8.372-1.788,8.372s-5.32-1.59-6.691-5.391,1.788-8.372,1.788-8.372S35.979,33.44,37.335,37.241Z" transform="translate(-7.863 -8.396)"/><path class="aj" d="M37.232,26.443c3.858-1.187,8.295,2.12,8.295,2.12s-1.8,5.242-5.652,6.429-8.295-2.12-8.295-2.12S33.382,27.63,37.232,26.443Z" transform="translate(-8.763 -6.734)"/><rect class="ak" width="0.94" height="4.486" rx="0.47" transform="translate(23.799 22.26)"/><rect class="ak" width="0.94" height="4.486" rx="0.47" transform="translate(21.226 23.434) rotate(-20.99)"/><rect class="ak" width="0.94" height="4.486" rx="0.47" transform="translate(26.669 23.1) rotate(21.28)"/><circle class="ai" cx="0.77" cy="0.77" r="0.77" transform="translate(20.811 22.26)"/><circle class="ai" cx="0.77" cy="0.77" r="0.77" transform="translate(26.371 22.38)"/><circle class="ai" cx="0.77" cy="0.77" r="0.77" transform="translate(23.495 21.49)"/><path class="ai" d="M51.328,78.987c1.886-4.395-1.47-10.047-1.47-10.047s-6.4,1.455-8.288,5.871,1.47,10.047,1.47,10.047S49.477,83.382,51.328,78.987Z" transform="translate(-11.526 -19.281)"/><path class="aj" d="M38.835,73.629c-1.59,4.508,2.12,9.891,2.12,9.891s6.3-1.886,7.885-6.359-2.12-9.891-2.12-9.891S40.425,69.121,38.835,73.629Z" transform="translate(-10.776 -18.791)"/><path class="ai" d="M52.755,85.7c-4.564-1.413-9.835,2.515-9.835,2.515s2.12,6.217,6.7,7.623,9.835-2.515,9.835-2.515S57.326,87.116,52.755,85.7Z" transform="translate(-12.091 -24.11)"/><path class="ai" d="M43.536,99.4C45.415,95,42.066,89.35,42.066,89.35s-6.4,1.477-8.309,5.871,1.47,10.047,1.47,10.047S41.657,103.792,43.536,99.4Z" transform="translate(-9.231 -25.27)"/><path class="aj" d="M50.823,82.847c-4.713-.615-9.263,4.169-9.263,4.169s3.172,5.751,7.913,6.359,9.263-4.161,9.263-4.161S55.563,83.455,50.823,82.847Z" transform="translate(-11.692 -23.346)"/><path class="ai" d="M31.425,83.023c-4.571-1.413-9.835,2.515-9.835,2.515s2.12,6.21,6.705,7.623,9.835-2.515,9.835-2.515S36.01,84.429,31.425,83.023Z" transform="translate(-5.831 -23.324)"/><path class="aj" d="M33.694,91.809c-1.6,4.508,2.12,9.891,2.12,9.891s6.3-1.886,7.892-6.359-2.12-9.891-2.12-9.891S35.284,87.3,33.694,91.809Z" transform="translate(-9.266 -24.126)"/><path class="aj" d="M31.425,78.993c-4.571-1.413-9.835,2.515-9.835,2.515s2.12,6.21,6.705,7.623,9.835-2.515,9.835-2.515S36.01,80.406,31.425,78.993Z" transform="translate(-5.831 -22.141)"/><rect class="ak" width="1.116" height="5.313" rx="0.558" transform="translate(31.14 65.182) rotate(180)"/><rect class="ak" width="1.116" height="5.313" rx="0.558" transform="translate(32.284 66.224) rotate(-159.01)"/><rect class="ak" width="1.116" height="5.313" rx="0.558" transform="translate(29.648 65.817) rotate(158.72)"/><circle class="ai" cx="0.918" cy="0.918" r="0.918" transform="translate(32.85 59.869)"/><circle class="ai" cx="0.918" cy="0.918" r="0.918" transform="translate(26.258 60.01)"/><circle class="ai" cx="0.918" cy="0.918" r="0.918" transform="translate(29.663 58.957)"/><path class="ah" d="M22.054,156.328a44.384,44.384,0,0,1,1.858,19.938A41.456,41.456,0,0,1,11.054,139.59a44.42,44.42,0,0,1,11,16.738Z" transform="translate(-2.622 -40.014)"/><path class="al" d="M17.483,108.192a83.371,83.371,0,0,1,4.055,27.371A83.5,83.5,0,0,1,8.446,111.188,83.512,83.512,0,0,1,4.384,83.81a83.37,83.37,0,0,1,13.1,24.382Z" transform="translate(-0.777 -23.645)"/><path class="ai" d="M26.806,66.478C28.4,62.776,25.57,58,25.57,58s-5.419,1.272-6.988,4.946,1.236,8.478,1.236,8.478S25.216,70.209,26.806,66.478Z" transform="translate(-4.809 -16.07)"/><path class="aj" d="M16.261,61.981c-1.342,3.8,1.788,8.372,1.788,8.372s5.306-1.59,6.648-5.391-1.788-8.372-1.788-8.372S17.6,58.18,16.261,61.981Z" transform="translate(-4.169 -15.656)"/><path class="ai" d="M28,72.182c-3.851-1.194-8.295,2.12-8.295,2.12s1.8,5.242,5.652,6.429,8.295-2.12,8.295-2.12S31.855,73.39,28,72.182Z" transform="translate(-5.279 -20.156)"/><path class="ai" d="M20.24,83.728C21.823,80.019,19,75.25,19,75.25s-5.4,1.243-6.988,4.946,1.243,8.478,1.243,8.478S18.65,87.431,20.24,83.728Z" transform="translate(-2.877 -21.133)"/><path class="aj" d="M26.374,69.772c-4-.509-7.814,3.533-7.814,3.533s2.678,4.854,6.677,5.37,7.807-3.533,7.807-3.533S30.373,70.28,26.374,69.772Z" transform="translate(-4.942 -19.512)"/><path class="ai" d="M10.015,69.9c-3.858-1.173-8.295,2.12-8.295,2.12s1.8,5.235,5.652,6.422,8.295-2.12,8.295-2.12S13.865,71.1,10.015,69.9Z" transform="translate(0 -19.487)"/><path class="aj" d="M11.921,77.311c-1.342,3.8,1.788,8.379,1.788,8.379s5.313-1.6,6.656-5.4-1.788-8.372-1.788-8.372S13.292,73.51,11.921,77.311Z" transform="translate(-2.895 -20.155)"/><path class="aj" d="M10.015,66.513c-3.858-1.187-8.295,2.12-8.295,2.12s1.8,5.235,5.652,6.429,8.295-2.12,8.295-2.12S13.865,67.707,10.015,66.513Z" transform="translate(0 -18.493)"/><rect class="ak" width="0.94" height="4.486" rx="0.47" transform="translate(14.692 55.057) rotate(180)"/><rect class="ak" width="0.94" height="4.486" rx="0.47" transform="translate(15.648 55.929) rotate(-159.01)"/><rect class="ak" width="0.94" height="4.486" rx="0.47" transform="translate(13.437 55.587) rotate(158.72)"/><circle class="ai" cx="0.77" cy="0.77" r="0.77" transform="translate(16.133 50.571)"/><circle class="ai" cx="0.77" cy="0.77" r="0.77" transform="translate(10.58 50.691)"/><circle class="ai" cx="0.77" cy="0.77" r="0.77" transform="translate(13.448 49.801)"/><path class="ai" d="M12.826,118.09c-.862-3.935,2.826-8.09,2.826-8.09s5.073,2.233,5.942,6.168-2.826,8.09-2.826,8.09S13.695,122.011,12.826,118.09Z" transform="translate(-3.221 -31.331)"/><path class="aj" d="M24.034,115.652c.608,3.978-3.356,7.892-3.356,7.892s-4.91-2.558-5.525-6.543,3.328-7.892,3.328-7.892S23.426,111.661,24.034,115.652Z" transform="translate(-3.923 -31.069)"/><path class="ai" d="M8.644,123.456c4.006-.445,7.772,3.639,7.772,3.639s-2.748,4.811-6.754,5.257-7.772-3.639-7.772-3.639S4.638,123.908,8.644,123.456Z" transform="translate(-0.05 -35.269)"/><path class="ai" d="M16.055,136.23c-.869-3.935,2.826-8.09,2.826-8.09s5.073,2.233,5.935,6.168-2.826,8.09-2.826,8.09S16.924,140.165,16.055,136.23Z" transform="translate(-4.168 -36.654)"/><path class="aj" d="M10.574,121.355c4.02.247,7.016,4.946,7.016,4.946s-3.533,4.239-7.567,4.02S3,125.383,3,125.383,6.533,121.1,10.574,121.355Z" transform="translate(-0.376 -34.66)"/><path class="ai" d="M26.742,124.6c4.006-.445,7.772,3.639,7.772,3.639s-2.748,4.811-6.762,5.257-7.772-3.632-7.772-3.632S22.735,125.048,26.742,124.6Z" transform="translate(-5.359 -35.604)"/><path class="aj" d="M25.431,131.528c.615,3.985-3.321,7.892-3.321,7.892s-4.946-2.558-5.525-6.542S19.906,125,19.906,125,24.824,127.544,25.431,131.528Z" transform="translate(-4.345 -35.733)"/><path class="aj" d="M27.372,121.265c4.013-.452,7.772,3.632,7.772,3.632s-2.755,4.811-6.762,5.264-7.772-3.639-7.772-3.639S23.365,121.711,27.372,121.265Z" transform="translate(-5.544 -34.626)"/><rect class="ak" width="0.94" height="4.486" rx="0.47" transform="translate(16.76 88.262) rotate(10.78)"/><rect class="ak" width="0.94" height="4.486" rx="0.47" transform="translate(14.014 88.936) rotate(-10.2)"/><rect class="ak" width="0.941" height="4.494" rx="0.471" transform="matrix(0.849, 0.529, -0.529, 0.849, 19.545, 89.835)"/><circle class="ai" cx="0.77" cy="0.77" r="0.77" transform="translate(13.667 87.84)"/><circle class="ai" cx="0.77" cy="0.77" r="0.77" transform="translate(19.108 88.992)"/><circle class="ai" cx="0.77" cy="0.77" r="0.77" transform="translate(16.451 87.586)"/><path class="ai" d="M42.633,142.18c.869-3.935-2.826-8.09-2.826-8.09s-5.073,2.233-5.942,6.168,2.826,8.1,2.826,8.1S41.771,146.122,42.633,142.18Z" transform="translate(-9.395 -38.4)"/><path class="aj" d="M31.443,139.742c-.608,3.985,3.321,7.892,3.321,7.892s4.946-2.558,5.525-6.542-3.321-7.892-3.321-7.892S32.051,135.758,31.443,139.742Z" transform="translate(-8.704 -38.139)"/><path class="ai" d="M44.532,147.555c-4.006-.452-7.772,3.632-7.772,3.632s2.755,4.811,6.762,5.257,7.772-3.632,7.772-3.632S48.545,148,44.532,147.555Z" transform="translate(-10.283 -42.342)"/><path class="ai" d="M39.419,160.32c.862-3.935-2.826-8.09-2.826-8.09s-5.023,2.233-5.921,6.2,2.826,8.1,2.826,8.1S38.55,164.262,39.419,160.32Z" transform="translate(-8.456 -43.724)"/><path class="aj" d="M42.586,145.456c-4.027.247-7.016,4.91-7.016,4.91s3.533,4.239,7.56,4.02,7.016-4.91,7.016-4.91S46.606,145.208,42.586,145.456Z" transform="translate(-9.934 -41.733)"/><path class="ai" d="M26.442,148.7c-4.006-.452-7.772,3.632-7.772,3.632s2.748,4.811,6.754,5.264,7.772-3.639,7.772-3.639S30.448,149.141,26.442,148.7Z" transform="translate(-4.974 -42.676)"/><path class="aj" d="M30.053,155.613c-.608,3.985,3.321,7.892,3.321,7.892s4.946-2.558,5.525-6.543-3.321-7.892-3.321-7.892S30.661,151.628,30.053,155.613Z" transform="translate(-8.296 -42.796)"/><path class="aj" d="M25.772,145.356c-4.006-.445-7.772,3.639-7.772,3.639s2.826,4.811,6.8,5.285,7.772-3.639,7.772-3.639S29.8,145.8,25.772,145.356Z" transform="translate(-4.778 -41.696)"/><rect class="ak" width="0.94" height="4.486" rx="0.47" transform="translate(26.931 109.689) rotate(169.22)"/><rect class="ak" width="0.94" height="4.486" rx="0.47" transform="translate(28.026 110.365) rotate(-169.8)"/><rect class="ak" width="0.94" height="4.486" rx="0.47" transform="translate(25.802 110.441) rotate(147.94)"/><circle class="ai" cx="0.77" cy="0.77" r="0.77" transform="translate(27.636 104.861)"/><circle class="ai" cx="0.77" cy="0.77" r="0.77" transform="translate(22.202 106.019)"/><circle class="ai" cx="0.77" cy="0.77" r="0.77" transform="translate(24.852 104.606)"/></g><g transform="translate(501.296 216.147)"><g transform="translate(87.498 191.009)"><path class="am" d="M143.73,228.112c7.162,23.116,25.573,31.683,40.024,35.289,36.73,9.163,49.736-15.711,50.061-28.318.066-2.543,1.375-5.182,3.031-7.524l-3.629-6.723c-2.925,6.171-16.5,30.684-44.742,23.638-13.06-3.258-24.148-10.376-32.33-17.131a16.978,16.978,0,0,0-5.673-3.09l-2.172-.69a3.626,3.626,0,0,0-4.619,2.58A3.685,3.685,0,0,0,143.73,228.112Z" transform="translate(-143.571 -211.831)"/><path class="an" d="M143.73,228.114a48.289,48.289,0,0,0,24.343,29.4l.007,0a68.981,68.981,0,0,0,15.673,5.891c36.73,9.163,49.736-15.711,50.061-28.318.066-2.543,1.376-5.181,3.031-7.523l-3.629-6.722a53.056,53.056,0,0,1-6.206,9.921c-7.31,21.856-26,24.658-32.13,24.972q-.638.033-1.278.052a50.235,50.235,0,0,1-32.285-10.111,47.717,47.717,0,0,1-15.826-21.845,3.611,3.611,0,0,0-1.809,2.315A3.685,3.685,0,0,0,143.73,228.114Z" transform="translate(-143.571 -211.833)"/><path class="ao" d="M143.682,232.046a3.685,3.685,0,0,0,.049,1.97c.163.527,1.193,3.391,1.368,3.9l8.255-6.545a21.45,21.45,0,0,0-5.053-1.908A3.626,3.626,0,0,0,143.682,232.046Z" transform="translate(-143.571 -217.735)"/><path class="am" d="M148,238.629a3.826,3.826,0,0,0,.646,1.946c14.133,20.834,35.052,23.78,50.526,22.987,39.329-2.014,44.734-30.709,41.236-43.355-1.593-5.758,2.969-13.923,4.8-16.871a1.6,1.6,0,0,0-.294-2.031l-2.731-2.465a1.607,1.607,0,0,0-2.37.238l-3.121,4.226a6.484,6.484,0,0,0-1.193,2.909c-1.04,7.028-7.117,35.536-37.361,37.085-13.985.716-27.176-3.007-37.366-7.249a17.646,17.646,0,0,0-6.583-1.357l-2.369-.029A3.772,3.772,0,0,0,148,238.629Z" transform="translate(-146.658 -196.185)"/><path class="an" d="M148,286.471a3.83,3.83,0,0,0,.646,1.947C162.776,309.251,183.7,312.2,199.17,311.4c39.329-2.014,44.734-30.709,41.236-43.355a8.8,8.8,0,0,1-.226-1.09c.463,14.019-8.259,35.526-42.183,37.263-14.889.762-34.806-1.934-48.9-20.6A3.754,3.754,0,0,0,148,286.471Z" transform="translate(-146.658 -244.028)"/><path class="ao" d="M443.86,203.8a53.876,53.876,0,0,1,4.179-6.935,1.745,1.745,0,0,0-.385-2.435L443.94,191.5a2.411,2.411,0,0,0-3.244.307l-4.3,5.1a7.64,7.64,0,0,0-.937,1.421Z" transform="translate(-347.329 -191.009)"/><path class="ao" d="M148,322.413a3.834,3.834,0,0,0,.645,1.946,22.477,22.477,0,0,0,3.081,4.135l4.488-9.876c-1.1-.173-4-.167-4.4-.173A3.772,3.772,0,0,0,148,322.413Z" transform="translate(-146.658 -279.969)"/></g><g transform="translate(92.138 221.168)"><path class="ap" d="M175.344,290.9c9.06,0,16.4,6.464,16.4,14.439,0,9.343-7.345,18.685-16.4,18.685s-16.4-9.342-16.4-18.685C158.939,297.363,166.284,290.9,175.344,290.9Z" transform="translate(-158.939 -290.898)"/><path class="aq" d="M179.661,326.062c-9.06,0-16.4-9.343-16.4-18.685a13.238,13.238,0,0,1,2.779-8.039,14.054,14.054,0,0,0-7.1,11.891c0,9.343,7.345,18.685,16.4,18.685a15.476,15.476,0,0,0,11.812-6.1A14.028,14.028,0,0,1,179.661,326.062Z" transform="translate(-158.939 -296.79)"/></g><g transform="translate(63.246 206.001)"><path class="ar" d="M73.718,273.14a21.1,21.1,0,1,0,8.726-2.808C80.151,270.446,75.065,274.449,73.718,273.14Z" transform="translate(-63.246 -261.311)"/><circle class="as" cx="1.216" cy="1.216" r="1.216" transform="translate(28.892 15.454)"/><circle class="as" cx="1.216" cy="1.216" r="1.216" transform="translate(33.055 19.687)"/><path class="i" d="M76.766,262.364a10.791,10.791,0,0,0,10.638,7.2l4.492-.191L90.4,265.133a10.791,10.791,0,0,0-10.638-7.2l-4.493.191Z" transform="translate(-71.642 -252.711)"/><path class="at" d="M87.4,268.171l-.4.366.129.525.37-.357.021.493a27.614,27.614,0,0,1,12.017,7.417l.633-.04-.471-1.253C94.044,269.879,87.927,268.065,87.4,268.171Z" transform="translate(-79.828 -259.863)"/><circle class="as" cx="1.216" cy="1.216" r="1.216" transform="translate(26.612 18.448)"/><circle class="as" cx="1.216" cy="1.216" r="1.216" transform="translate(3.567 23.752)"/><circle class="as" cx="1.216" cy="1.216" r="1.216" transform="translate(5.315 29.297)"/><circle class="as" cx="1.216" cy="1.216" r="1.216" transform="translate(3.884 33.589)"/><circle class="as" cx="1.216" cy="1.216" r="1.216" transform="translate(1.476 27.443)"/><g transform="translate(16.223 14.98)"><path class="ao" d="M123.939,290.485a.881.881,0,0,1,.107,1.241c-2.067,2.455-6.154,1.833-6.328,1.8a.881.881,0,0,1,.277-1.739c.032.005,3.281.49,4.7-1.2a.879.879,0,0,1,1.241-.107Z" transform="translate(-116.978 -290.278)"/></g><g transform="translate(13.81 0)"><path class="ao" d="M114.633,258.489a.9.9,0,0,0,1.187-.942c-.044-.479-1.129-11.775-5.241-16.568a.905.905,0,0,0-1.374,1.178c3.74,4.36,4.8,15.444,4.813,15.556A.9.9,0,0,0,114.633,258.489Z" transform="translate(-108.987 -240.663)"/></g></g><g transform="translate(112.338 226.256)"><path class="ap" d="M242.25,307.75c9.06,0,16.4,6.464,16.4,14.439,0,9.343-7.345,18.685-16.4,18.685s-16.4-9.343-16.4-18.685C225.845,314.214,233.19,307.75,242.25,307.75Z" transform="translate(-225.845 -307.75)"/><path class="aq" d="M246.567,342.914c-9.06,0-16.405-9.342-16.405-18.685a13.237,13.237,0,0,1,2.779-8.039,14.054,14.054,0,0,0-7.1,11.891c0,9.342,7.345,18.685,16.4,18.685a15.476,15.476,0,0,0,11.812-6.1A14.028,14.028,0,0,1,246.567,342.914Z" transform="translate(-225.845 -313.642)"/></g><path class="j" d="M0,0H110.5a0,0,0,0,1,0,0V0A15.056,15.056,0,0,1,95.44,15.056H15.056A15.056,15.056,0,0,1,0,0V0A0,0,0,0,1,0,0Z" transform="translate(64.232 248.797)"/></g><text class="d" transform="translate(780 425)"><tspan x="-76" y="0">香蕉、李子、梨</tspan></text><text class="d" transform="translate(683 581)"><tspan x="-21" y="0">劍蘭</tspan></text><text class="d" transform="translate(957 525)"><tspan x="-21" y="0">金紙</tspan></text><g transform="translate(172.635 -118.163) rotate(17)"><path class="au" d="M941.5,343.673l65.179-32.621v-5.628L941.5,335.412Z" transform="translate(2.482 3.088)"/><path class="av" d="M915.5,299.2l59.7-26.129,33.959,35.44-65.179,31.22Z" transform="translate(0 0)"/><path class="aw" d="M927.667,300.424l42.711-18.692,24.294,25.354L948.042,329.42Z" transform="translate(1.161 0.826)"/><path class="au" d="M935.333,300.569l32-14.007,18.2,19L950.6,322.3Z" transform="translate(1.893 1.288)"/><path class="au" d="M943.982,337.456v7.029L915.5,304.125v-7.2" transform="translate(0 2.277)"/><rect class="aw" width="26.219" height="2.556" rx="1.021" transform="translate(945.145 303.736) rotate(-24.237)"/><rect class="aw" width="21.401" height="2.556" rx="0.928" transform="translate(954.103 307.053) rotate(-24.237)"/><rect class="aw" width="27.829" height="2.507" rx="1.043" transform="translate(953.544 315.049) rotate(-24.237)"/></g><g transform="translate(268 357)"><path class="e" d="M31.888,8.511a17.018,17.018,0,0,0-6.22-6.219A16.717,16.717,0,0,0,17.09,0,16.717,16.717,0,0,0,8.512,2.292a17.014,17.014,0,0,0-6.22,6.219A16.716,16.716,0,0,0,0,17.09a16.72,16.72,0,0,0,2.292,8.578,17.018,17.018,0,0,0,6.22,6.22A16.718,16.718,0,0,0,17.09,34.18a16.719,16.719,0,0,0,8.579-2.292,17.014,17.014,0,0,0,6.219-6.22A16.72,16.72,0,0,0,34.18,17.09,16.721,16.721,0,0,0,31.888,8.511ZM27.571,23.165a12.072,12.072,0,0,1-4.406,4.406,11.832,11.832,0,0,1-6.075,1.624,11.833,11.833,0,0,1-6.075-1.624,12.072,12.072,0,0,1-4.406-4.406A11.83,11.83,0,0,1,4.985,17.09a11.833,11.833,0,0,1,1.625-6.075,12.066,12.066,0,0,1,4.406-4.406A11.832,11.832,0,0,1,17.09,4.985a11.832,11.832,0,0,1,6.075,1.624,12.067,12.067,0,0,1,4.406,4.406A11.831,11.831,0,0,1,29.2,17.09,11.831,11.831,0,0,1,27.571,23.165Z" transform="translate(0 0)"/></g></g></svg>