<svg xmlns="http://www.w3.org/2000/svg" width="101" height="113.441" viewBox="0 0 101 113.441"><defs><style>.a{fill:#dc9628;}.b{fill:#f4c44e;}.c{fill:#f1b501;}.d{fill:#d2d5d7;}.e{fill:#d13834;}.f{fill:#c6b09c;}.g{fill:#e76051;stroke:#e76051;stroke-linecap:round;stroke-linejoin:round;}.h{fill:#009367;}.i{fill:#25a4cd;}.j{fill:#a9bd32;}.k{fill:#f7cd46;}</style></defs><g transform="translate(-279.195 -288.274)"><g transform="translate(279.195 324.746)"><path class="a" d="M59.215,14.475a5.887,5.887,0,0,0-3.933,2.147,27.648,27.648,0,0,1-15.869,9.513,15.384,15.384,0,0,0-8.825,5.472,16.163,16.163,0,0,0,1.594,21.711,15.329,15.329,0,0,0,22.41-1.652,15.9,15.9,0,0,0,3.492-8.755,32.589,32.589,0,0,1,7.332-17.777S69.848,16.321,59.215,14.475Z" transform="translate(20.079 2.371)"/><path class="b" d="M82.784,27.079c.518-.731,1.056-1.45,1.63-2.141,0,0,4.458-8.65-6.237-10.464a5.964,5.964,0,0,0-3.956,2.107,25.835,25.835,0,0,1-2.837,2.889c-7.616-2.449-16.918-1-27.037,7.622-1.12.955-3.018,2.972-5.657,3.959-1.009,4.861-4.261,10.759-11.141,17.863-7.972,8.231-13.852,3.847-14.492-1.9-.612-5.5,4.206-11.044,7.246-15.676a47.78,47.78,0,0,0,3.96-7.226,6.793,6.793,0,0,0-3.71-1.131C9.125,22.98,4,30.809,4,40.466A14.712,14.712,0,0,0,4.3,43.4a20.38,20.38,0,0,1,.147,8.242A20.742,20.742,0,0,0,4,55.894a12.58,12.58,0,0,0,2.8,8.123,10.872,10.872,0,0,1,16.5,5.218h1.264a10.875,10.875,0,0,1,20.474,0H46.3a10.875,10.875,0,0,1,20.474,0h1.264A10.844,10.844,0,0,1,86.381,65.7c5.175-3.508,8.78-8.117,10-13.92C97.953,44.357,89.238,34.231,82.784,27.079Z" transform="translate(1.011 3.168)"/><path class="c" d="M17,32.861c3.032-4.447,6.639-10.913,6.324-16.142a2.771,2.771,0,0,1,4.187-2.461c8.265,4.7,19.007,15.792-2.544,37.209C16.2,60.179,9.732,55.539,9.029,49.454,8.356,43.636,13.654,37.764,17,32.861Z" transform="translate(4.319 1.248)"/><path class="d" d="M65.146,10.167a4.222,4.222,0,0,0-2.381-1.48,1.742,1.742,0,0,1-1.228-1.012,4.227,4.227,0,0,0-1.909-2.055,4.37,4.37,0,0,0-5.039.71,4.294,4.294,0,0,0-1.27,3.717,5.224,5.224,0,0,1-1.023,4.13l-6.657,8.076c3.86.974,5.335,2.975,5.734,4.962L58.145,19A5.232,5.232,0,0,1,62,17.205a4.292,4.292,0,0,0,3.408-1.956A4.375,4.375,0,0,0,65.146,10.167Z" transform="translate(34.899 -5.122)"/><path class="a" d="M59.215,14.475a5.887,5.887,0,0,0-3.933,2.147,27.648,27.648,0,0,1-15.869,9.513,15.384,15.384,0,0,0-8.825,5.472,16.163,16.163,0,0,0,1.594,21.711,15.329,15.329,0,0,0,22.41-1.652,15.9,15.9,0,0,0,3.492-8.755,32.589,32.589,0,0,1,7.332-17.777S69.848,16.321,59.215,14.475Z" transform="translate(20.079 2.371)"/><path class="e" d="M86.854,57.487H12.737a10.253,10.253,0,0,1-8.328-4.263l-4.092-5.7a1.673,1.673,0,0,1,1.369-2.646H97.907a1.673,1.673,0,0,1,1.369,2.646l-4.092,5.7A10.254,10.254,0,0,1,86.854,57.487Z" transform="translate(0 19.482)"/></g><g transform="translate(355.598 352.015) rotate(171)"><path class="f" d="M.948,65.573H.956c.524,0,.948-.242.948-.54V.54C1.9.242,1.479,0,.956,0H.948C.424,0,0,.242,0,.54V65.033C0,65.332.424,65.573.948,65.573Z" transform="translate(61.043 0)"/><path class="g" d="M61.043,47.8,0,0H61.043V47.8" transform="translate(0 16.158)"/><path class="h" d="M44.777,34.657,0,0H44.777V34.657" transform="translate(12.93 20.449)"/><path class="i" d="M37.4,27.658,0,0H37.4V27.658" transform="translate(18.446 22.743)"/><g transform="translate(24.088 22.803)"><path class="j" d="M.341,2.327A5.945,5.945,0,0,1,7.049.378a6.545,6.545,0,0,1,3.006,2.427c1.144,1.6,2.34,4.565,4.886,3.24,2.083-1.085,3.184-4.078,6.02-2.4a4.788,4.788,0,0,1,1.852,2.326c.475,1.145.589,2.194,1.695,2.922,1.39.915,3.119.54,4.649.273,1.651-.287,2.361,2.241.7,2.53-2.48.432-5.141.768-7.269-.863a5.846,5.846,0,0,1-1.971-3.1c-.969-2.787-2.6-.578-4.057.367a5.224,5.224,0,0,1-5.718-.018A8.192,8.192,0,0,1,8.6,5.446c-1.557-2.458-4.006-4-6.4-1.264C1.083,5.456-.767,3.593.341,2.327Z" transform="translate(0 0)"/></g><g transform="translate(31.983 26.15)"><g transform="translate(0)"><ellipse class="g" cx="2.879" cy="2.879" rx="2.879" ry="2.879"/></g><ellipse class="k" cx="2.227" cy="2.227" rx="2.227" ry="2.227" transform="translate(0.651 0.651)"/></g><g transform="translate(38.609 31.256)"><ellipse class="g" cx="2.879" cy="2.879" rx="2.879" ry="2.879"/><ellipse class="k" cx="2.227" cy="2.227" rx="2.227" ry="2.227" transform="translate(0.651 0.651)"/></g><g transform="translate(45.234 36.362)"><g transform="translate(0)"><ellipse class="g" cx="2.879" cy="2.879" rx="2.879" ry="2.879"/></g><ellipse class="k" cx="2.227" cy="2.227" rx="2.227" ry="2.227" transform="translate(0.651 0.651)"/></g></g></g></svg>