<svg xmlns="http://www.w3.org/2000/svg" width="86.83" height="126.82" viewBox="0 0 86.83 126.82"><defs><style>.a{fill:#238b3a;}.b,.c,.d,.e,.f,.j{fill:#008330;stroke:#008330;stroke-linecap:round;stroke-linejoin:round;}.b{stroke-width:0.448px;}.c{stroke-width:0.565px;}.d{stroke-width:0.962px;}.e{stroke-width:0.388px;}.f{stroke-width:0.813px;}.g{fill:#750065;}.h{fill:#aa3b94;}.i{fill:#e1e6c5;}.j{stroke-width:0.954px;}</style></defs><g transform="matrix(0.848, 0.53, -0.53, 0.848, 65.96, -10.336)"><rect class="a" width="4.112" height="128.914" rx="2.056" transform="translate(20.507 17.434)"/><path class="b" d="M22.832,31.731A30.784,30.784,0,0,1,25.468,43.41,30.8,30.8,0,0,1,18.4,33.759,30.876,30.876,0,0,1,15.76,22.08a30.861,30.861,0,0,1,7.072,9.651Z" transform="translate(-4.12 -5.529)"/><path class="b" d="M24.845,55.568a30.784,30.784,0,0,1,2.635,11.679,30.882,30.882,0,0,1-7.065-9.658A30.763,30.763,0,0,1,17.78,45.91,30.883,30.883,0,0,1,24.845,55.568Z" transform="translate(-4.713 -12.522)"/><path class="c" d="M31.1,26.067a38.859,38.859,0,0,0,.636,15.084,38.859,38.859,0,0,0,5.44-14.081A38.859,38.859,0,0,0,36.548,12,38.8,38.8,0,0,0,31.1,26.067Z" transform="translate(-8.488 -2.571)"/><path class="d" d="M33.984,70.776a82.021,82.021,0,0,0-1.632,27.64A82.184,82.184,0,0,0,43.4,73.03a82.233,82.233,0,0,0,1.632-27.64,82.085,82.085,0,0,0-11.05,25.386Z" transform="translate(-8.842 -12.37)"/><path class="e" d="M34.1,53.511A25.958,25.958,0,0,0,32.16,63.572a25.923,25.923,0,0,0,5.878-8.394A25.845,25.845,0,0,0,39.981,45.11a25.909,25.909,0,0,0-5.878,8.4Z" transform="translate(-8.933 -12.287)"/><path class="c" d="M22.014,18.289a38.951,38.951,0,0,0,7.065,13.339,38.8,38.8,0,0,0-1.13-15.049A38.987,38.987,0,0,0,20.883,3.24a38.859,38.859,0,0,0,1.13,15.049Z" transform="translate(-5.541)"/><path class="f" d="M32.676,124.849a44.384,44.384,0,0,0-1.844,19.917,44.363,44.363,0,0,0,10.994-16.738,44.335,44.335,0,0,0,1.865-19.938,44.42,44.42,0,0,0-11.015,16.759Z" transform="translate(-8.425 -30.77)"/><path class="g" d="M22.418,26.478C20.829,22.769,23.655,18,23.655,18s5.4,1.243,6.988,4.946-1.236,8.478-1.236,8.478S24.008,30.152,22.418,26.478Z" transform="translate(-5.932 -4.332)"/><path class="h" d="M33,21.908c1.349,3.8-1.788,8.372-1.788,8.372s-5.306-1.59-6.648-5.391,1.788-8.379,1.788-8.379S31.655,18.107,33,21.908Z" transform="translate(-6.605 -3.894)"/><path class="g" d="M19.242,32.1c3.851-1.187,8.295,2.12,8.295,2.12s-1.8,5.242-5.652,6.429-8.295-2.12-8.295-2.12S15.392,33.29,19.242,32.1Z" transform="translate(-3.483 -8.395)"/><path class="g" d="M28.98,43.648c-1.583-3.7,1.243-8.478,1.243-8.478s5.4,1.243,6.988,4.946-1.243,8.478-1.243,8.478S30.57,47.358,28.98,43.648Z" transform="translate(-7.859 -9.37)"/><path class="h" d="M20.656,29.7c4-.516,7.814,3.533,7.814,3.533s-2.678,4.833-6.7,5.341S14,35.043,14,35.043,16.657,30.21,20.656,29.7Z" transform="translate(-3.604 -7.752)"/><path class="g" d="M37.232,29.892c3.858-1.194,8.295,2.12,8.295,2.12s-1.8,5.242-5.652,6.429-8.295-2.12-8.295-2.12S33.382,31.044,37.232,29.892Z" transform="translate(-8.763 -7.745)"/><path class="h" d="M37.335,37.241c1.342,3.8-1.788,8.372-1.788,8.372s-5.32-1.59-6.691-5.391,1.788-8.372,1.788-8.372S35.979,33.44,37.335,37.241Z" transform="translate(-7.863 -8.396)"/><path class="h" d="M37.232,26.443c3.858-1.187,8.295,2.12,8.295,2.12s-1.8,5.242-5.652,6.429-8.295-2.12-8.295-2.12S33.382,27.63,37.232,26.443Z" transform="translate(-8.763 -6.734)"/><rect class="i" width="0.94" height="4.486" rx="0.47" transform="translate(23.799 22.26)"/><rect class="i" width="0.94" height="4.486" rx="0.47" transform="translate(21.226 23.434) rotate(-20.99)"/><rect class="i" width="0.94" height="4.486" rx="0.47" transform="translate(26.669 23.1) rotate(21.28)"/><circle class="g" cx="0.77" cy="0.77" r="0.77" transform="translate(20.811 22.26)"/><circle class="g" cx="0.77" cy="0.77" r="0.77" transform="translate(26.371 22.38)"/><circle class="g" cx="0.77" cy="0.77" r="0.77" transform="translate(23.495 21.49)"/><path class="g" d="M51.328,78.987c1.886-4.395-1.47-10.047-1.47-10.047s-6.4,1.455-8.288,5.871,1.47,10.047,1.47,10.047S49.477,83.382,51.328,78.987Z" transform="translate(-11.526 -19.281)"/><path class="h" d="M38.835,73.629c-1.59,4.508,2.12,9.891,2.12,9.891s6.3-1.886,7.885-6.359-2.12-9.891-2.12-9.891S40.425,69.121,38.835,73.629Z" transform="translate(-10.776 -18.791)"/><path class="g" d="M52.755,85.7c-4.564-1.413-9.835,2.515-9.835,2.515s2.12,6.217,6.7,7.623,9.835-2.515,9.835-2.515S57.326,87.116,52.755,85.7Z" transform="translate(-12.091 -24.11)"/><path class="g" d="M43.536,99.4C45.415,95,42.066,89.35,42.066,89.35s-6.4,1.477-8.309,5.871,1.47,10.047,1.47,10.047S41.657,103.792,43.536,99.4Z" transform="translate(-9.231 -25.27)"/><path class="h" d="M50.823,82.847c-4.713-.615-9.263,4.169-9.263,4.169s3.172,5.751,7.913,6.359,9.263-4.161,9.263-4.161S55.563,83.455,50.823,82.847Z" transform="translate(-11.692 -23.346)"/><path class="g" d="M31.425,83.023c-4.571-1.413-9.835,2.515-9.835,2.515s2.12,6.21,6.705,7.623,9.835-2.515,9.835-2.515S36.01,84.429,31.425,83.023Z" transform="translate(-5.831 -23.324)"/><path class="h" d="M33.694,91.809c-1.6,4.508,2.12,9.891,2.12,9.891s6.3-1.886,7.892-6.359-2.12-9.891-2.12-9.891S35.284,87.3,33.694,91.809Z" transform="translate(-9.266 -24.126)"/><path class="h" d="M31.425,78.993c-4.571-1.413-9.835,2.515-9.835,2.515s2.12,6.21,6.705,7.623,9.835-2.515,9.835-2.515S36.01,80.406,31.425,78.993Z" transform="translate(-5.831 -22.141)"/><rect class="i" width="1.116" height="5.313" rx="0.558" transform="translate(31.14 65.182) rotate(180)"/><rect class="i" width="1.116" height="5.313" rx="0.558" transform="translate(32.284 66.224) rotate(-159.01)"/><rect class="i" width="1.116" height="5.313" rx="0.558" transform="translate(29.648 65.817) rotate(158.72)"/><circle class="g" cx="0.918" cy="0.918" r="0.918" transform="translate(32.85 59.869)"/><circle class="g" cx="0.918" cy="0.918" r="0.918" transform="translate(26.258 60.01)"/><circle class="g" cx="0.918" cy="0.918" r="0.918" transform="translate(29.663 58.957)"/><path class="f" d="M22.054,156.328a44.384,44.384,0,0,1,1.858,19.938A41.456,41.456,0,0,1,11.054,139.59a44.42,44.42,0,0,1,11,16.738Z" transform="translate(-2.622 -40.014)"/><path class="j" d="M17.483,108.192a83.371,83.371,0,0,1,4.055,27.371A83.5,83.5,0,0,1,8.446,111.188,83.512,83.512,0,0,1,4.384,83.81a83.37,83.37,0,0,1,13.1,24.382Z" transform="translate(-0.777 -23.645)"/><path class="g" d="M26.806,66.478C28.4,62.776,25.57,58,25.57,58s-5.419,1.272-6.988,4.946,1.236,8.478,1.236,8.478S25.216,70.209,26.806,66.478Z" transform="translate(-4.809 -16.07)"/><path class="h" d="M16.261,61.981c-1.342,3.8,1.788,8.372,1.788,8.372s5.306-1.59,6.648-5.391-1.788-8.372-1.788-8.372S17.6,58.18,16.261,61.981Z" transform="translate(-4.169 -15.656)"/><path class="g" d="M28,72.182c-3.851-1.194-8.295,2.12-8.295,2.12s1.8,5.242,5.652,6.429,8.295-2.12,8.295-2.12S31.855,73.39,28,72.182Z" transform="translate(-5.279 -20.156)"/><path class="g" d="M20.24,83.728C21.823,80.019,19,75.25,19,75.25s-5.4,1.243-6.988,4.946,1.243,8.478,1.243,8.478S18.65,87.431,20.24,83.728Z" transform="translate(-2.877 -21.133)"/><path class="h" d="M26.374,69.772c-4-.509-7.814,3.533-7.814,3.533s2.678,4.854,6.677,5.37,7.807-3.533,7.807-3.533S30.373,70.28,26.374,69.772Z" transform="translate(-4.942 -19.512)"/><path class="g" d="M10.015,69.9c-3.858-1.173-8.295,2.12-8.295,2.12s1.8,5.235,5.652,6.422,8.295-2.12,8.295-2.12S13.865,71.1,10.015,69.9Z" transform="translate(0 -19.487)"/><path class="h" d="M11.921,77.311c-1.342,3.8,1.788,8.379,1.788,8.379s5.313-1.6,6.656-5.4-1.788-8.372-1.788-8.372S13.292,73.51,11.921,77.311Z" transform="translate(-2.895 -20.155)"/><path class="h" d="M10.015,66.513c-3.858-1.187-8.295,2.12-8.295,2.12s1.8,5.235,5.652,6.429,8.295-2.12,8.295-2.12S13.865,67.707,10.015,66.513Z" transform="translate(0 -18.493)"/><rect class="i" width="0.94" height="4.486" rx="0.47" transform="translate(14.692 55.057) rotate(180)"/><rect class="i" width="0.94" height="4.486" rx="0.47" transform="translate(15.648 55.929) rotate(-159.01)"/><rect class="i" width="0.94" height="4.486" rx="0.47" transform="translate(13.437 55.587) rotate(158.72)"/><circle class="g" cx="0.77" cy="0.77" r="0.77" transform="translate(16.133 50.571)"/><circle class="g" cx="0.77" cy="0.77" r="0.77" transform="translate(10.58 50.691)"/><circle class="g" cx="0.77" cy="0.77" r="0.77" transform="translate(13.448 49.801)"/><path class="g" d="M12.826,118.09c-.862-3.935,2.826-8.09,2.826-8.09s5.073,2.233,5.942,6.168-2.826,8.09-2.826,8.09S13.695,122.011,12.826,118.09Z" transform="translate(-3.221 -31.331)"/><path class="h" d="M24.034,115.652c.608,3.978-3.356,7.892-3.356,7.892s-4.91-2.558-5.525-6.543,3.328-7.892,3.328-7.892S23.426,111.661,24.034,115.652Z" transform="translate(-3.923 -31.069)"/><path class="g" d="M8.644,123.456c4.006-.445,7.772,3.639,7.772,3.639s-2.748,4.811-6.754,5.257-7.772-3.639-7.772-3.639S4.638,123.908,8.644,123.456Z" transform="translate(-0.05 -35.269)"/><path class="g" d="M16.055,136.23c-.869-3.935,2.826-8.09,2.826-8.09s5.073,2.233,5.935,6.168-2.826,8.09-2.826,8.09S16.924,140.165,16.055,136.23Z" transform="translate(-4.168 -36.654)"/><path class="h" d="M10.574,121.355c4.02.247,7.016,4.946,7.016,4.946s-3.533,4.239-7.567,4.02S3,125.383,3,125.383,6.533,121.1,10.574,121.355Z" transform="translate(-0.376 -34.66)"/><path class="g" d="M26.742,124.6c4.006-.445,7.772,3.639,7.772,3.639s-2.748,4.811-6.762,5.257-7.772-3.632-7.772-3.632S22.735,125.048,26.742,124.6Z" transform="translate(-5.359 -35.604)"/><path class="h" d="M25.431,131.528c.615,3.985-3.321,7.892-3.321,7.892s-4.946-2.558-5.525-6.542S19.906,125,19.906,125,24.824,127.544,25.431,131.528Z" transform="translate(-4.345 -35.733)"/><path class="h" d="M27.372,121.265c4.013-.452,7.772,3.632,7.772,3.632s-2.755,4.811-6.762,5.264-7.772-3.639-7.772-3.639S23.365,121.711,27.372,121.265Z" transform="translate(-5.544 -34.626)"/><rect class="i" width="0.94" height="4.486" rx="0.47" transform="translate(16.76 88.262) rotate(10.78)"/><rect class="i" width="0.94" height="4.486" rx="0.47" transform="translate(14.014 88.936) rotate(-10.2)"/><rect class="i" width="0.941" height="4.494" rx="0.471" transform="matrix(0.849, 0.529, -0.529, 0.849, 19.545, 89.835)"/><circle class="g" cx="0.77" cy="0.77" r="0.77" transform="translate(13.667 87.84)"/><circle class="g" cx="0.77" cy="0.77" r="0.77" transform="translate(19.108 88.992)"/><circle class="g" cx="0.77" cy="0.77" r="0.77" transform="translate(16.451 87.586)"/><path class="g" d="M42.633,142.18c.869-3.935-2.826-8.09-2.826-8.09s-5.073,2.233-5.942,6.168,2.826,8.1,2.826,8.1S41.771,146.122,42.633,142.18Z" transform="translate(-9.395 -38.4)"/><path class="h" d="M31.443,139.742c-.608,3.985,3.321,7.892,3.321,7.892s4.946-2.558,5.525-6.542-3.321-7.892-3.321-7.892S32.051,135.758,31.443,139.742Z" transform="translate(-8.704 -38.139)"/><path class="g" d="M44.532,147.555c-4.006-.452-7.772,3.632-7.772,3.632s2.755,4.811,6.762,5.257,7.772-3.632,7.772-3.632S48.545,148,44.532,147.555Z" transform="translate(-10.283 -42.342)"/><path class="g" d="M39.419,160.32c.862-3.935-2.826-8.09-2.826-8.09s-5.023,2.233-5.921,6.2,2.826,8.1,2.826,8.1S38.55,164.262,39.419,160.32Z" transform="translate(-8.456 -43.724)"/><path class="h" d="M42.586,145.456c-4.027.247-7.016,4.91-7.016,4.91s3.533,4.239,7.56,4.02,7.016-4.91,7.016-4.91S46.606,145.208,42.586,145.456Z" transform="translate(-9.934 -41.733)"/><path class="g" d="M26.442,148.7c-4.006-.452-7.772,3.632-7.772,3.632s2.748,4.811,6.754,5.264,7.772-3.639,7.772-3.639S30.448,149.141,26.442,148.7Z" transform="translate(-4.974 -42.676)"/><path class="h" d="M30.053,155.613c-.608,3.985,3.321,7.892,3.321,7.892s4.946-2.558,5.525-6.543-3.321-7.892-3.321-7.892S30.661,151.628,30.053,155.613Z" transform="translate(-8.296 -42.796)"/><path class="h" d="M25.772,145.356c-4.006-.445-7.772,3.639-7.772,3.639s2.826,4.811,6.8,5.285,7.772-3.639,7.772-3.639S29.8,145.8,25.772,145.356Z" transform="translate(-4.778 -41.696)"/><rect class="i" width="0.94" height="4.486" rx="0.47" transform="translate(26.931 109.689) rotate(169.22)"/><rect class="i" width="0.94" height="4.486" rx="0.47" transform="translate(28.026 110.365) rotate(-169.8)"/><rect class="i" width="0.94" height="4.486" rx="0.47" transform="translate(25.802 110.441) rotate(147.94)"/><circle class="g" cx="0.77" cy="0.77" r="0.77" transform="translate(27.636 104.861)"/><circle class="g" cx="0.77" cy="0.77" r="0.77" transform="translate(22.202 106.019)"/><circle class="g" cx="0.77" cy="0.77" r="0.77" transform="translate(24.852 104.606)"/></g></svg>