<svg xmlns="http://www.w3.org/2000/svg" width="125.297" height="72.844" viewBox="0 0 125.297 72.844"><defs><style>.a{fill:#fff872;}.b{fill:#ffc922;}.c{fill:#9c5723;}.d{fill:#ae6472;}.e{fill:#8c5564;}.f{fill:#ebd26d;}.g{fill:#fff;}.h{fill:#659c35;}.i{fill:#88c057;}.j{fill:#d13834;}</style></defs><g transform="translate(-63.246 -191.009)"><g transform="translate(87.498 191.009)"><path class="a" d="M143.73,228.112c7.162,23.116,25.573,31.683,40.024,35.289,36.73,9.163,49.736-15.711,50.061-28.318.066-2.543,1.375-5.182,3.031-7.524l-3.629-6.723c-2.925,6.171-16.5,30.684-44.742,23.638-13.06-3.258-24.148-10.376-32.33-17.131a16.978,16.978,0,0,0-5.673-3.09l-2.172-.69a3.626,3.626,0,0,0-4.619,2.58A3.685,3.685,0,0,0,143.73,228.112Z" transform="translate(-143.571 -211.831)"/><path class="b" d="M143.73,228.114a48.289,48.289,0,0,0,24.343,29.4l.007,0a68.981,68.981,0,0,0,15.673,5.891c36.73,9.163,49.736-15.711,50.061-28.318.066-2.543,1.376-5.181,3.031-7.523l-3.629-6.722a53.056,53.056,0,0,1-6.206,9.921c-7.31,21.856-26,24.658-32.13,24.972q-.638.033-1.278.052a50.235,50.235,0,0,1-32.285-10.111,47.717,47.717,0,0,1-15.826-21.845,3.611,3.611,0,0,0-1.809,2.315A3.685,3.685,0,0,0,143.73,228.114Z" transform="translate(-143.571 -211.833)"/><path class="c" d="M143.682,232.046a3.685,3.685,0,0,0,.049,1.97c.163.527,1.193,3.391,1.368,3.9l8.255-6.545a21.45,21.45,0,0,0-5.053-1.908A3.626,3.626,0,0,0,143.682,232.046Z" transform="translate(-143.571 -217.735)"/><path class="a" d="M148,238.629a3.826,3.826,0,0,0,.646,1.946c14.133,20.834,35.052,23.78,50.526,22.987,39.329-2.014,44.734-30.709,41.236-43.355-1.593-5.758,2.969-13.923,4.8-16.871a1.6,1.6,0,0,0-.294-2.031l-2.731-2.465a1.607,1.607,0,0,0-2.37.238l-3.121,4.226a6.484,6.484,0,0,0-1.193,2.909c-1.04,7.028-7.117,35.536-37.361,37.085-13.985.716-27.176-3.007-37.366-7.249a17.646,17.646,0,0,0-6.583-1.357l-2.369-.029A3.772,3.772,0,0,0,148,238.629Z" transform="translate(-146.658 -196.185)"/><path class="b" d="M148,286.471a3.83,3.83,0,0,0,.646,1.947C162.776,309.251,183.7,312.2,199.17,311.4c39.329-2.014,44.734-30.709,41.236-43.355a8.8,8.8,0,0,1-.226-1.09c.463,14.019-8.259,35.526-42.183,37.263-14.889.762-34.806-1.934-48.9-20.6A3.754,3.754,0,0,0,148,286.471Z" transform="translate(-146.658 -244.028)"/><path class="c" d="M443.86,203.8a53.876,53.876,0,0,1,4.179-6.935,1.745,1.745,0,0,0-.385-2.435L443.94,191.5a2.411,2.411,0,0,0-3.244.307l-4.3,5.1a7.64,7.64,0,0,0-.937,1.421Z" transform="translate(-347.329 -191.009)"/><path class="c" d="M148,322.413a3.834,3.834,0,0,0,.645,1.946,22.477,22.477,0,0,0,3.081,4.135l4.488-9.876c-1.1-.173-4-.167-4.4-.173A3.772,3.772,0,0,0,148,322.413Z" transform="translate(-146.658 -279.969)"/></g><g transform="translate(92.138 221.168)"><path class="d" d="M175.344,290.9c9.06,0,16.4,6.464,16.4,14.439,0,9.343-7.345,18.685-16.4,18.685s-16.4-9.342-16.4-18.685C158.939,297.363,166.284,290.9,175.344,290.9Z" transform="translate(-158.939 -290.898)"/><path class="e" d="M179.661,326.062c-9.06,0-16.4-9.343-16.4-18.685a13.238,13.238,0,0,1,2.779-8.039,14.054,14.054,0,0,0-7.1,11.891c0,9.343,7.345,18.685,16.4,18.685a15.476,15.476,0,0,0,11.812-6.1A14.028,14.028,0,0,1,179.661,326.062Z" transform="translate(-158.939 -296.79)"/></g><g transform="translate(63.246 206.001)"><path class="f" d="M73.718,273.14a21.1,21.1,0,1,0,8.726-2.808C80.151,270.446,75.065,274.449,73.718,273.14Z" transform="translate(-63.246 -261.311)"/><circle class="g" cx="1.216" cy="1.216" r="1.216" transform="translate(28.892 15.454)"/><circle class="g" cx="1.216" cy="1.216" r="1.216" transform="translate(33.055 19.687)"/><path class="h" d="M76.766,262.364a10.791,10.791,0,0,0,10.638,7.2l4.492-.191L90.4,265.133a10.791,10.791,0,0,0-10.638-7.2l-4.493.191Z" transform="translate(-71.642 -252.711)"/><path class="i" d="M87.4,268.171l-.4.366.129.525.37-.357.021.493a27.614,27.614,0,0,1,12.017,7.417l.633-.04-.471-1.253C94.044,269.879,87.927,268.065,87.4,268.171Z" transform="translate(-79.828 -259.863)"/><circle class="g" cx="1.216" cy="1.216" r="1.216" transform="translate(26.612 18.448)"/><circle class="g" cx="1.216" cy="1.216" r="1.216" transform="translate(3.567 23.752)"/><circle class="g" cx="1.216" cy="1.216" r="1.216" transform="translate(5.315 29.297)"/><circle class="g" cx="1.216" cy="1.216" r="1.216" transform="translate(3.884 33.589)"/><circle class="g" cx="1.216" cy="1.216" r="1.216" transform="translate(1.476 27.443)"/><g transform="translate(16.223 14.98)"><path class="c" d="M123.939,290.485a.881.881,0,0,1,.107,1.241c-2.067,2.455-6.154,1.833-6.328,1.8a.881.881,0,0,1,.277-1.739c.032.005,3.281.49,4.7-1.2a.879.879,0,0,1,1.241-.107Z" transform="translate(-116.978 -290.278)"/></g><g transform="translate(13.81 0)"><path class="c" d="M114.633,258.489a.9.9,0,0,0,1.187-.942c-.044-.479-1.129-11.775-5.241-16.568a.905.905,0,0,0-1.374,1.178c3.74,4.36,4.8,15.444,4.813,15.556A.9.9,0,0,0,114.633,258.489Z" transform="translate(-108.987 -240.663)"/></g></g><g transform="translate(112.338 226.256)"><path class="d" d="M242.25,307.75c9.06,0,16.4,6.464,16.4,14.439,0,9.343-7.345,18.685-16.4,18.685s-16.4-9.343-16.4-18.685C225.845,314.214,233.19,307.75,242.25,307.75Z" transform="translate(-225.845 -307.75)"/><path class="e" d="M246.567,342.914c-9.06,0-16.405-9.342-16.405-18.685a13.237,13.237,0,0,1,2.779-8.039,14.054,14.054,0,0,0-7.1,11.891c0,9.342,7.345,18.685,16.4,18.685a15.476,15.476,0,0,0,11.812-6.1A14.028,14.028,0,0,1,246.567,342.914Z" transform="translate(-225.845 -313.642)"/></g><path class="j" d="M0,0H110.5a0,0,0,0,1,0,0V0A15.056,15.056,0,0,1,95.44,15.056H15.056A15.056,15.056,0,0,1,0,0V0A0,0,0,0,1,0,0Z" transform="translate(64.232 248.797)"/></g></svg>