<svg xmlns="http://www.w3.org/2000/svg" width="28.5" height="28.5" viewBox="0 0 28.5 28.5"><defs><style>.a{fill:#f1735e;}</style></defs><path class="a" d="M-1309.915,28.772l-8.592-8.592-8.592,8.592a3.315,3.315,0,0,1-4.687,0,3.315,3.315,0,0,1,0-4.687l8.592-8.592-8.592-8.592a3.315,3.315,0,0,1,0-4.687,3.315,3.315,0,0,1,4.687,0l8.592,8.592,8.592-8.592a3.315,3.315,0,0,1,4.687,0,3.314,3.314,0,0,1,0,4.687l-8.592,8.592,8.592,8.592a3.314,3.314,0,0,1,0,4.687,3.3,3.3,0,0,1-2.344.971A3.3,3.3,0,0,1-1309.915,28.772Z" transform="translate(1332.757 -1.242)"/></svg>