<svg xmlns="http://www.w3.org/2000/svg" width="34.18" height="34.18" viewBox="0 0 34.18 34.18"><defs><style>.a{fill:#5ed134;}</style></defs><path class="a" d="M31.888,8.511a17.018,17.018,0,0,0-6.22-6.219A16.717,16.717,0,0,0,17.09,0,16.717,16.717,0,0,0,8.512,2.292a17.014,17.014,0,0,0-6.22,6.219A16.716,16.716,0,0,0,0,17.09a16.72,16.72,0,0,0,2.292,8.578,17.018,17.018,0,0,0,6.22,6.22A16.718,16.718,0,0,0,17.09,34.18a16.719,16.719,0,0,0,8.579-2.292,17.014,17.014,0,0,0,6.219-6.22A16.72,16.72,0,0,0,34.18,17.09,16.721,16.721,0,0,0,31.888,8.511ZM27.571,23.165a12.072,12.072,0,0,1-4.406,4.406,11.832,11.832,0,0,1-6.075,1.624,11.833,11.833,0,0,1-6.075-1.624,12.072,12.072,0,0,1-4.406-4.406A11.83,11.83,0,0,1,4.985,17.09a11.833,11.833,0,0,1,1.625-6.075,12.066,12.066,0,0,1,4.406-4.406A11.832,11.832,0,0,1,17.09,4.985a11.832,11.832,0,0,1,6.075,1.624,12.067,12.067,0,0,1,4.406,4.406A11.831,11.831,0,0,1,29.2,17.09,11.831,11.831,0,0,1,27.571,23.165Z" transform="translate(0 0)"/></svg>