<svg xmlns="http://www.w3.org/2000/svg" width="60.097" height="61.936" viewBox="0 0 60.097 61.936"><defs><style>.a{fill:#ed8f20;}.b{fill:#ef771d;}.c{fill:#9b6026;}.d{fill:#659c35;}</style></defs><g transform="translate(0)"><path class="a" d="M43.7,14.793l-6.117-.5,2.265-5.705A14.734,14.734,0,0,1,41.22,5.967a28.894,28.894,0,1,0,10.086,7.405A14.7,14.7,0,0,1,43.7,14.793Z" transform="translate(-0.765 0.704)"/><circle class="b" cx="2.399" cy="2.399" r="2.399" transform="translate(43.004 19.831)"/><circle class="b" cx="2.399" cy="2.399" r="2.399" transform="translate(49.413 33.241)"/><circle class="b" cx="2.399" cy="2.399" r="2.399" transform="translate(49.029 25.842)"/><circle class="b" cx="2.399" cy="2.399" r="2.399" transform="translate(41.749 30.69)"/><circle class="b" cx="2.399" cy="2.399" r="2.399" transform="translate(43.004 39.066)"/><circle class="b" cx="2.399" cy="2.399" r="2.399" transform="translate(21.365 10.214)"/><circle class="b" cx="2.399" cy="2.399" r="2.399" transform="translate(12.95 13.821)"/><g transform="translate(31.262 12.66)"><path class="a" d="M27.765,11.529s5.1.84,6.477,4.318" transform="translate(-26.566 -10.33)"/><path class="c" d="M34.441,17.246a1.2,1.2,0,0,1-1.115-.758c-1.109-2.8-5.516-3.569-5.559-3.576a1.2,1.2,0,0,1,.391-2.366c.236.038,5.786,1,7.4,5.059a1.2,1.2,0,0,1-.673,1.557A1.188,1.188,0,0,1,34.441,17.246Z" transform="translate(-26.765 -10.529)"/></g><g transform="translate(31.98 13.179)"><path class="a" d="M28.365,15.041a11.748,11.748,0,0,1,4.542-3.079" transform="translate(-27.165 -10.762)"/><path class="c" d="M28.563,16.44a1.2,1.2,0,0,1-.886-2.007,12.967,12.967,0,0,1,5.009-3.4,1.2,1.2,0,1,1,.843,2.245,10.549,10.549,0,0,0-4.078,2.763A1.194,1.194,0,0,1,28.563,16.44Z" transform="translate(-27.364 -10.962)"/></g><path class="d" d="M54.626.552l-6.1-.5A14.7,14.7,0,0,0,33.657,9.276L31.4,14.968l6.1.5A14.7,14.7,0,0,0,52.367,6.244Z" transform="translate(5.471 0.001)"/></g></svg>