<svg xmlns="http://www.w3.org/2000/svg" width="111.113" height="97.853" viewBox="0 0 111.113 97.853"><defs><style>.a{fill:#f79000;}.b{fill:#fbcd56;}.c{fill:#c41112;}</style></defs><g transform="translate(-774.114 -528.806) rotate(17)"><path class="a" d="M941.5,343.673l65.179-32.621v-5.628L941.5,335.412Z" transform="translate(2.482 3.088)"/><path class="b" d="M915.5,299.2l59.7-26.129,33.959,35.44-65.179,31.22Z" transform="translate(0 0)"/><path class="c" d="M927.667,300.424l42.711-18.692,24.294,25.354L948.042,329.42Z" transform="translate(1.161 0.826)"/><path class="a" d="M935.333,300.569l32-14.007,18.2,19L950.6,322.3Z" transform="translate(1.893 1.288)"/><path class="a" d="M943.982,337.456v7.029L915.5,304.125v-7.2" transform="translate(0 2.277)"/><rect class="c" width="26.219" height="2.556" rx="1.021" transform="translate(945.145 303.736) rotate(-24.237)"/><rect class="c" width="21.401" height="2.556" rx="0.928" transform="translate(954.103 307.053) rotate(-24.237)"/><rect class="c" width="27.829" height="2.507" rx="1.043" transform="translate(953.544 315.049) rotate(-24.237)"/></g></svg>