<svg xmlns="http://www.w3.org/2000/svg" width="88.356" height="96.457" viewBox="0 0 88.356 96.457"><defs><style>.a{fill:#eae2ce;}.b{fill:#ff5892;}.c{fill:none;stroke:#c93e70;stroke-width:4px;}.c,.e{stroke-linecap:round;}.d{fill:#c6b09c;}.e{fill:#e76051;stroke:#e76051;stroke-linejoin:round;}.f{fill:#009367;}.g{fill:#25a4cd;}.h{fill:#a9bd32;}.i{fill:#f7cd46;}</style></defs><g transform="translate(-553.626 -450.637)"><g transform="translate(580.399 489.468)"><g transform="translate(0 0)"><path class="a" d="M21.449,49.586s-.117-5.6,5.482-5.6c0,0,0-5.6,5.6-5.6,0,0,0-5.6,5.6-5.6,0,0,0-5.6,5.6-5.6,0,0,0-5.6,5.6-5.6s5.6,5.6,5.6,5.6,5.6,0,5.6,5.6c0,0,5.6,0,5.6,5.6,0,0,5.6,0,5.6,5.6,0,0,5.482,0,5.482,5.6l.117,2.8H21.332Zm0,0" transform="translate(-18.533 -21.594)"/><path class="b" d="M30.792,234.926H0c0,22.394,16.8,25.193,16.8,25.193a6.02,6.02,0,0,0,5.6,5.6h16.8a6.02,6.02,0,0,0,5.6-5.6s16.8-2.8,16.8-25.193Zm0,0" transform="translate(0 -208.091)"/><path class="c" d="M8.819,64.164s2.363,10.823,10.641,12.93" transform="translate(-2.556 -31.125)"/></g></g><g transform="translate(553.983 459.294) rotate(-10)"><path class="d" d="M.751,0H.757c.415,0,.751.191.751.428V51.509c0,.236-.336.428-.751.428H.751c-.415,0-.751-.191-.751-.428V.428C0,.191.336,0,.751,0Z" transform="translate(48.348 0)"/><path class="e" d="M48.348,0,0,37.858H48.348V0" transform="translate(0 1.281)"/><path class="f" d="M35.465,0,0,27.45H35.465V0" transform="translate(10.241 8.291)"/><path class="g" d="M29.624,0,0,21.906H29.624V0" transform="translate(14.61 12.017)"/><g transform="translate(19.079 24.327)"><path class="h" d="M.27,7.706A4.709,4.709,0,0,0,5.583,9.249,5.184,5.184,0,0,0,7.964,7.327c.906-1.267,1.853-3.616,3.87-2.566,1.65.859,2.522,3.23,4.768,1.9a3.793,3.793,0,0,0,1.467-1.843c.377-.907.466-1.738,1.342-2.315,1.1-.724,2.47-.427,3.683-.216,1.308.228,1.87-1.775.552-2-1.965-.342-4.072-.608-5.758.684a4.63,4.63,0,0,0-1.561,2.452c-.767,2.208-2.057.458-3.214-.291a4.138,4.138,0,0,0-4.529.014,6.489,6.489,0,0,0-1.774,2.1c-1.233,1.947-3.173,3.171-5.071,1C.858,5.228-.607,6.7.27,7.706Z" transform="translate(0 0)"/></g><g transform="translate(25.332 26.665)"><ellipse class="e" cx="2.28" cy="2.28" rx="2.28" ry="2.28"/><ellipse class="i" cx="1.764" cy="1.764" rx="1.764" ry="1.764" transform="translate(0.516 0.516)"/></g><g transform="translate(30.58 22.621)"><g transform="translate(0 0)"><ellipse class="e" cx="2.28" cy="2.28" rx="2.28" ry="2.28"/></g><ellipse class="i" cx="1.764" cy="1.764" rx="1.764" ry="1.764" transform="translate(0.516 0.516)"/></g><g transform="translate(35.827 18.577)"><ellipse class="e" cx="2.28" cy="2.28" rx="2.28" ry="2.28"/><ellipse class="i" cx="1.764" cy="1.764" rx="1.764" ry="1.764" transform="translate(0.516 0.516)"/></g></g></g></svg>